# Made in Blockbench 4.12.2
mtllib vehicles_ground_truck_semi.mtl

o cuboid
v -0.4375 0.5 0.125
v -0.4375 0.5 -0.1875
v -0.8125 0.0625 -0.1875
v -0.375 0.75 0.125
v -0.375 0.75 -0.1875
v -0.875 0.5 0.125
v -0.875 0.5 -0.1875
v -0.875 0.0625 0.125
v -0.875 0.0625 -0.1875
v -0.5 0.0625 -0.1875
v -0.8125 0.25 -0.1875
v -0.5 0.25 -0.1875
v -0.75 0.5 0.125
v -0.75 0.5 -0.1875
v -0.5 0.0625 -0.3125
v -0.8125 0.25 -0.3125
v -0.8125 0.0625 -0.3125
v -0.875 0.0625 -0.3125
v -0.875 0.3125 -0.1875
v -0.875 0.3125 -0.3125
v -0.4375 0.3125 -0.1875
v -0.4375 0.3125 -0.3125
v -0.4375 0.0625 -0.3125
v 0.0625 0.75 -0.25
v -0.125 0.75 -0.25
v -0.75 0.3125 -0.3125
v -0.75 0.3125 -0.1875
v -0.875 0.3125 0.125
v -0.875 0.25 -0.3125
v -0.875 0.25 -0.1875
v -0.875 0.25 0.125
v -0.4375 0.25 -0.3125
v -0.25 0.0625 -0.3125
v -0.4375 0.125 -0.3125
v -0.25 0.125 -0.3125
v -0.4375 0.125 -0.25
v -0.25 0.1875 -0.25
v -0.4375 0.1875 -0.1875
v -0.5 0.0625 -0.3125
v -0.5 0.125 -0.3125
v -0.4375 0.1875 -0.3125
v -0.4375 0.1875 -0.25
v -0.4375 0.1875 -0.3125
v -0.4375 0.25 -0.25
v -0.4375 0.25 -0.1875
v -0.4375 0.1875 -0.3125
v -0.4375 0.25 -0.3125
v -0.5 0.1875 -0.3125
v -0.5 0.25 -0.3125
v 0.0625 0.5 -0.25
v -0.125 0.5 -0.25
v -0.1875 0.5 -0.1875
v -0.1875 0.75 -0.1875
v 0.0625 0.3125 -0.25
v -0.125 0.3125 -0.25
v -0.1875 0.3125 -0.1875
v -0.125 0.25 -0.25
v -0.1875 0.25 -0.1875
v -0.1875 0.1875 -0.1875
v -0.875 0.0625 0.25
v -0.875 0.25 0.25
v -0.875 0.3125 0.25
v -0.8125 0.0625 0.125
v -0.8125 0.0625 0.25
v -0.8125 0.25 0.125
v -0.8125 0.25 0.25
v -0.5 0.25 0.125
v -0.5 0.0625 0.125
v -0.5 0.0625 0.25
v -0.4375 0.0625 0.25
v -0.25 0.0625 0.25
v -0.25 0.125 0.25
v -0.5 0.25 0.25
v -0.4375 0.125 0.1875
v -0.25 0.1875 0.1875
v -0.4375 0.1875 0.1875
v -0.4375 0.1875 0.125
v -0.4375 0.1875 0.25
v -0.4375 0.125 0.25
v -0.4375 0.25 0.1875
v -0.4375 0.25 0.25
v -0.4375 0.25 0.125
v -0.75 0.3125 0.125
v -0.4375 0.3125 0.25
v -0.4375 0.3125 0.125
v -0.125 0.25 0.1875
v 0.0625 0.3125 0.1875
v -0.125 0.3125 0.1875
v 0.0625 0.5 0.1875
v -0.125 0.5 0.1875
v 0.0625 0.75 0.1875
v -0.125 0.75 0.1875
v -0.1875 0.75 0.125
v -0.1875 0.5 0.125
v -0.1875 0.3125 0.125
v -0.1875 0.25 0.125
v -0.1875 0.1875 0.125
v -0.25 0.125 -0.25
v -0.25 0.125 0.1875
v -0.125 0.0625 0.125
v -0.125 0.1875 0.125
v -0.125 0.0625 -0.1875
v 0.0625 0.0625 0.125
v 0.0625 0.0625 -0.1875
v -0.25 0.1875 0.125
v -0.25 0.0625 0.125
v -0.25 0.1875 -0.1875
v -0.125 0.1875 0.1875
v 0.0625 0.1875 -0.1875
v 0.0625 0.1875 0.125
v 0.0625 0.0625 0.0625
v 0.0625 0.1875 0.0625
v 0.0625 0.1875 -0.125
v 0.0625 0.0625 -0.125
v 0.9375 0.0625 -0.125
v 0.9375 0.0625 0.0625
v -0.5 0.25 -0.125
v -0.8125 0.25 -0.125
v -0.5 0.0625 -0.125
v -0.5 0.25 0.0625
v -0.5 0.0625 0.0625
v -0.8125 0.25 0.0625
v -0.8125 0.0625 0.0625
v -0.8125 0.25 0.0625
v -0.8125 0.25 -0.125
v -0.8125 0.0625 -0.125
v 0.0625 0.25 0.125
v 0.0625 0.25 -0.1875
v 0.0625 0.1875 0.125
v 0.0625 0.1875 -0.1875
v 0.0625 0.1875 -0.25
v 0.0625 0.25 -0.25
v 0.0625 0.25 0.1875
v 0.0625 0.1875 0.1875
v 0.0625 0.3125 0.125
v 0.0625 0.3125 0.1875
v 0.0625 0.3125 -0.25
v 0.0625 0.3125 -0.1875
v 0.9375 0.1875 -0.125
v 0.9375 0.1875 0.0625
v 0.9375 0.25 -0.125
v 0.9375 0.25 0.0625
v 0.5625 0.25 -0.125
v 0.5625 0.25 0.0625
v 0.5625 0.3125 -0.125
v 0.5625 0.3125 0.0625
v 0.25 0.3125 -0.125
v 0.25 0.3125 0.0625
v 0.25 0.25 -0.125
v 0.25 0.25 0.0625
v 0.0625 0.25 -0.125
v 0.0625 0.25 0.0625
v 0.25 0.1875 0.0625
v 0.5625 0.1875 0.0625
v 0.5625 0.0625 0.0625
v 0.5625 0.1875 -0.125
v 0.25 0.1875 -0.125
v 0.5625 0.0625 -0.125
v 0.25 0.0625 -0.125
v 0.25 0.0625 0.0625
v 0.25 0.25 0.0625
v 0.0625 0.25 0.0625
v 0.0625 0.25 -0.125
v 0.25 0.25 -0.125
v -0.125 0.1875 -0.1875
v -0.125 0.1875 -0.25
v -0.125 0.75 -0.1875
v 0.0625 0.75 -0.1875
v 0.0625 0.75 0.125
v -0.125 0.75 0.125
v -0.25 0.0625 -0.25
v -0.25 0.0625 -0.1875
v -0.25 0.0625 -0.1875
v -0.4375 0.0625 -0.1875
v -0.25 0.0625 0.1875
v -0.4375 0.0625 0.125
v -0.25 0.0625 0.125
v -0.4375 0.0625 -0.25
v -0.4375 0.0625 0.1875
vt 0.375 0.765625
vt 0.40625 0.765625
vt 0.40625 0.796875
vt 0.375 0.796875
vt 0.40625 0.765625
vt 0.484375 0.765625
vt 0.484375 0.796875
vt 0.40625 0.796875
vt 0.109375 0.4375
vt 0.09375 0.4375
vt 0.09375 0.40625
vt 0.109375 0.40625
vt 0.109375 0.515625
vt 0.09375 0.515625
vt 0.09375 0.4375
vt 0.109375 0.4375
vt 0.046875 0.796875
vt 0.046875 0.84375
vt 0.015625 0.84375
vt 0.015625 0.796875
vt 0.265625 0.546875
vt 0.1875 0.546875
vt 0.1875 0.515625
vt 0.265625 0.515625
vt 0.15625 0.75
vt 0.15625 0.703125
vt 0.1875 0.703125
vt 0.1875 0.75
vt 0 0.71875
vt 0 0.703125
vt 0.03125 0.703125
vt 0.03125 0.71875
vt 0.03125 0.71875
vt 0.03125 0.703125
vt 0.109375 0.703125
vt 0.109375 0.71875
vt 0 0.703125
vt 0 0.65625
vt 0.03125 0.65625
vt 0.03125 0.703125
vt 0.109375 0.65625
vt 0.109375 0.703125
vt 0.03125 0.703125
vt 0.03125 0.65625
vt 0.578125 0.75
vt 0.578125 0.734375
vt 0.609375 0.734375
vt 0.609375 0.75
vt 0.015625 0.78125
vt 0 0.78125
vt 0 0.734375
vt 0.015625 0.734375
vt 0.625 0.65625
vt 0.515625 0.65625
vt 0.515625 0.640625
vt 0.625 0.640625
vt 0.5625 0.671875
vt 0.5625 0.6875
vt 0.515625 0.6875
vt 0.515625 0.671875
vt 0.125 0.4375
vt 0.125 0.421875
vt 0.171875 0.421875
vt 0.171875 0.4375
vt 0.484375 0.421875
vt 0.484375 0.4375
vt 0.4375 0.4375
vt 0.4375 0.421875
vt 0.5 0.4375
vt 0.5 0.421875
vt 0.546875 0.421875
vt 0.546875 0.4375
vt 0.5625 0.671875
vt 0.578125 0.671875
vt 0.578125 0.6875
vt 0.5625 0.6875
vt 0.609375 0.8125
vt 0.609375 0.828125
vt 0.59375 0.828125
vt 0.59375 0.8125
vt 0.578125 0.6875
vt 0.578125 0.703125
vt 0.5625 0.703125
vt 0.5625 0.6875
vt 0.59375 0.53125
vt 0.59375 0.546875
vt 0.578125 0.546875
vt 0.578125 0.53125
vt 0.59375 0.53125
vt 0.609375 0.53125
vt 0.609375 0.546875
vt 0.59375 0.546875
vt 0.59375 0.78125
vt 0.609375 0.78125
vt 0.609375 0.796875
vt 0.59375 0.796875
vt 0.328125 0.90625
vt 0.328125 0.921875
vt 0.3125 0.90625
vt 0.0625 0.875
vt 0 0.875
vt 0 0.859375
vt 0.0625 0.859375
vt 0.0625 0.890625
vt 0 0.890625
vt 0 0.875
vt 0.0625 0.875
vt 0.0625 0.9375
vt 0 0.9375
vt 0 0.890625
vt 0.0625 0.890625
vt 0.046875 1
vt 0 1
vt 0 0.9375
vt 0.0625 0.9375
vt 0.59375 0.90625
vt 0.59375 0.890625
vt 0.625 0.890625
vt 0.625 0.90625
vt 0.09375 0.515625
vt 0.109375 0.515625
vt 0.109375 0.546875
vt 0.09375 0.546875
vt 0.609375 0.484375
vt 0.609375 0.5
vt 0.5625 0.5
vt 0.5625 0.484375
vt 0.140625 0.59375
vt 0.140625 0.640625
vt 0.125 0.640625
vt 0.125 0.59375
vt 0.578125 0.46875
vt 0.5625 0.46875
vt 0.5625 0.421875
vt 0.578125 0.421875
vt 0.640625 0.625
vt 0.53125 0.625
vt 0.53125 0.609375
vt 0.640625 0.609375
vt 0.046875 0.40625
vt 0.046875 0.421875
vt 0 0.421875
vt 0 0.40625
vt 0.625 0.984375
vt 0.625 1
vt 0.578125 1
vt 0.578125 0.984375
vt 0.625 0.953125
vt 0.625 0.96875
vt 0.578125 0.96875
vt 0.578125 0.953125
vt 0.546875 0.53125
vt 0.53125 0.53125
vt 0.53125 0.515625
vt 0.546875 0.515625
vt 0.546875 0.53125
vt 0.546875 0.546875
vt 0.53125 0.546875
vt 0.53125 0.53125
vt 0.5625 0.53125
vt 0.5625 0.546875
vt 0.546875 0.546875
vt 0.546875 0.53125
vt 0.109375 0.84375
vt 0.109375 0.796875
vt 0.1875 0.796875
vt 0.1875 0.84375
vt 0.25 0.90625
vt 0.203125 0.90625
vt 0.1875 0.84375
vt 0.25 0.84375
vt 0.25 0.84375
vt 0.1875 0.84375
vt 0.1875 0.796875
vt 0.25 0.796875
vt 0.1875 0.78125
vt 0.25 0.78125
vt 0.25 0.796875
vt 0.1875 0.796875
vt 0.25 0.78125
vt 0.1875 0.78125
vt 0.1875 0.765625
vt 0.25 0.765625
vt 0.3125 0.828125
vt 0.328125 0.8125
vt 0.328125 0.828125
vt 0.5625 0.9375
vt 0.546875 0.921875
vt 0.5625 0.921875
vt 0.265625 0.625
vt 0.15625 0.625
vt 0.15625 0.578125
vt 0.265625 0.578125
vt 0.265625 0.6875
vt 0.15625 0.6875
vt 0.15625 0.625
vt 0.265625 0.625
vt 0.34375 0.546875
vt 0.421875 0.546875
vt 0.421875 0.625
vt 0.34375 0.625
vt 0.265625 0.546875
vt 0.265625 0.5625
vt 0.1875 0.5625
vt 0.1875 0.546875
vt 0.1875 0.703125
vt 0.203125 0.703125
vt 0.203125 0.75
vt 0.1875 0.75
vt 0.453125 0.5
vt 0.4375 0.5
vt 0.4375 0.453125
vt 0.453125 0.453125
vt 0.4375 0.59375
vt 0.4375 0.578125
vt 0.515625 0.578125
vt 0.515625 0.59375
vt 0.53125 0.453125
vt 0.546875 0.453125
vt 0.546875 0.5
vt 0.53125 0.5
vt 0.015625 0.84375
vt 0 0.84375
vt 0 0.796875
vt 0.015625 0.796875
vt 0.4375 0.515625
vt 0.515625 0.515625
vt 0.515625 0.5625
vt 0.4375 0.5625
vt 0 0.5
vt 0.078125 0.5
vt 0.078125 0.546875
vt 0 0.546875
vt 0.453125 0.921875
vt 0.453125 0.875
vt 0.53125 0.875
vt 0.53125 0.921875
vt 0.5625 0.875
vt 0.578125 0.875
vt 0.578125 0.890625
vt 0.5625 0.890625
vt 0.5625 0.84375
vt 0.546875 0.84375
vt 0.546875 0.828125
vt 0.5625 0.828125
vt 0.5625 0.84375
vt 0.5625 0.859375
vt 0.546875 0.859375
vt 0.546875 0.84375
vt 0.578125 0.890625
vt 0.578125 0.90625
vt 0.5625 0.90625
vt 0.5625 0.890625
vt 0.34375 0.796875
vt 0.265625 0.796875
vt 0.265625 0.78125
vt 0.34375 0.78125
vt 0.5625 0.828125
vt 0.578125 0.828125
vt 0.578125 0.84375
vt 0.5625 0.84375
vt 0.3125 0.390625
vt 0.328125 0.390625
vt 0.328125 0.421875
vt 0.3125 0.421875
vt 0.140625 0.40625
vt 0.125 0.40625
vt 0.125 0.375
vt 0.140625 0.375
vt 0.5625 0.890625
vt 0.546875 0.890625
vt 0.546875 0.875
vt 0.5625 0.875
vt 0.046875 0.46875
vt 0.046875 0.484375
vt 0 0.484375
vt 0 0.46875
vt 0.234375 0.40625
vt 0.234375 0.421875
vt 0.1875 0.421875
vt 0.1875 0.40625
vt 0.25 0.421875
vt 0.25 0.40625
vt 0.296875 0.40625
vt 0.296875 0.421875
vt 0.359375 1
vt 0.28125 1
vt 0.28125 0.984375
vt 0.359375 0.984375
vt 0.34375 0.765625
vt 0.265625 0.765625
vt 0.265625 0.75
vt 0.34375 0.75
vt 0.046875 0.46875
vt 0 0.46875
vt 0 0.4375
vt 0.046875 0.4375
vt 0.5 0.640625
vt 0.5 0.6875
vt 0.28125 0.6875
vt 0.28125 0.640625
vt 0.265625 0.75
vt 0.265625 0.734375
vt 0.34375 0.734375
vt 0.34375 0.75
vt 0.4375 0.734375
vt 0.34375 0.734375
vt 0.34375 0.703125
vt 0.4375 0.703125
vt 0.4375 0.75
vt 0.34375 0.75
vt 0.34375 0.734375
vt 0.4375 0.734375
vt 0.28125 0.984375
vt 0.28125 0.96875
vt 0.359375 0.96875
vt 0.359375 0.984375
vt 0.1875 0.9375
vt 0.28125 0.9375
vt 0.28125 0.96875
vt 0.1875 0.96875
vt 0.1875 0.96875
vt 0.28125 0.96875
vt 0.28125 0.984375
vt 0.1875 0.984375
vt 0.265625 0.734375
vt 0.21875 0.734375
vt 0.21875 0.703125
vt 0.265625 0.703125
vt 0.359375 0.9375
vt 0.40625 0.9375
vt 0.40625 0.96875
vt 0.359375 0.96875
vt 0.265625 0.734375
vt 0.265625 0.75
vt 0.21875 0.75
vt 0.21875 0.734375
vt 0.40625 0.96875
vt 0.40625 0.984375
vt 0.359375 0.984375
vt 0.359375 0.96875
vt 0.515625 1
vt 0.515625 0.953125
vt 0.5625 0.953125
vt 0.5625 1
vt 0.453125 0.859375
vt 0.453125 0.8125
vt 0.53125 0.8125
vt 0.53125 0.859375
vt 0.359375 0.96875
vt 0.28125 0.96875
vt 0.28125 0.9375
vt 0.359375 0.9375
vt 0.34375 0.734375
vt 0.265625 0.734375
vt 0.265625 0.703125
vt 0.34375 0.703125
vt 0.171875 0.953125
vt 0.171875 1
vt 0.078125 1
vt 0.078125 0.953125
vt 0.28125 0.4375
vt 0.328125 0.4375
vt 0.328125 0.453125
vt 0.28125 0.453125
vt 0.328125 0.46875
vt 0.28125 0.46875
vt 0.28125 0.453125
vt 0.328125 0.453125
vt 0.390625 0.8125
vt 0.4375 0.8125
vt 0.4375 0.859375
vt 0.390625 0.859375
vt 0.390625 0.859375
vt 0.4375 0.859375
vt 0.4375 0.921875
vt 0.390625 0.921875
vt 0.53125 0.5625
vt 0.578125 0.5625
vt 0.578125 0.578125
vt 0.53125 0.578125
vt 0.578125 0.59375
vt 0.53125 0.59375
vt 0.53125 0.578125
vt 0.578125 0.578125
vt 0.171875 0.5
vt 0.125 0.5
vt 0.125 0.453125
vt 0.171875 0.453125
vt 0.171875 0.5625
vt 0.125 0.5625
vt 0.125 0.5
vt 0.171875 0.5
vt 0.265625 0.5
vt 0.21875 0.5
vt 0.21875 0.46875
vt 0.265625 0.46875
vt 0.5 0.765625
vt 0.546875 0.765625
vt 0.546875 0.796875
vt 0.5 0.796875
vt 0.609375 0.9375
vt 0.5625 0.9375
vt 0.5625 0.921875
vt 0.609375 0.921875
vt 0.203125 0.4375
vt 0.203125 0.453125
vt 0.1875 0.453125
vt 0.203125 0.4375
vt 0.25 0.4375
vt 0.25 0.453125
vt 0.203125 0.453125
vt 0.328125 0.921875
vt 0.328125 0.90625
vt 0.375 0.90625
vt 0.375 0.921875
vt 0.375 0.8125
vt 0.375 0.828125
vt 0.328125 0.828125
vt 0.328125 0.8125
vt 0.391965625 0.40625
vt 0.391965625 0.390625
vt 0.4140625 0.390625
vt 0.4140625 0.40625
vt 0.391965625 0.421875
vt 0.391965625 0.40625
vt 0.4140625 0.40625
vt 0.4140625 0.421875
vt 0.328125 0.90625
vt 0.328125 0.828125
vt 0.375 0.828125
vt 0.375 0.90625
vt 0.34375 0.390625
vt 0.365846875 0.390625
vt 0.365846875 0.40625
vt 0.34375 0.40625
vt 0.365846875 0.421875
vt 0.34375 0.421875
vt 0.34375 0.40625
vt 0.365846875 0.40625
vt 0.365846875 0.46875
vt 0.34375 0.46875
vt 0.34375 0.421875
vt 0.365846875 0.421875
vt 0.365846875 0.53125
vt 0.34375 0.53125
vt 0.34375 0.46875
vt 0.365846875 0.46875
vt 0.4140625 0.53125
vt 0.391965625 0.53125
vt 0.391965625 0.46875
vt 0.4140625 0.46875
vt 0.328125 0.484375
vt 0.328125 0.5
vt 0.28125 0.5
vt 0.28125 0.484375
vt 0.328125 0.5
vt 0.328125 0.515625
vt 0.28125 0.515625
vt 0.28125 0.5
vt 0.28125 0.625
vt 0.28125 0.609375
vt 0.328125 0.609375
vt 0.328125 0.625
vt 0.28125 0.609375
vt 0.28125 0.59375
vt 0.328125 0.59375
vt 0.328125 0.609375
vt 0.328125 0.515625
vt 0.328125 0.59375
vt 0.28125 0.59375
vt 0.28125 0.515625
vt 0.078125 0.34375
vt 0.078125 0.484375
vt 0.0625 0.484375
vt 0.0625 0.34375
vt 0.59375 0.875
vt 0.59375 0.84375
vt 0.609375 0.84375
vt 0.609375 0.875
vt 0.59375 0.71875
vt 0.59375 0.703125
vt 0.609375 0.703125
vt 0.609375 0.71875
vt 0.546875 0.765625
vt 0.578125 0.765625
vt 0.578125 0.796875
vt 0.546875 0.796875
vt 0.59375 0.6875
vt 0.59375 0.671875
vt 0.609375 0.671875
vt 0.609375 0.6875
vt 0.171875 0.375
vt 0.171875 0.40625
vt 0.15625 0.40625
vt 0.15625 0.375
vt 0.21875 0.5
vt 0.1875 0.5
vt 0.1875 0.46875
vt 0.21875 0.46875
vt 0.4375 0.59375
vt 0.515625 0.59375
vt 0.515625 0.625
vt 0.4375 0.625
vt 0.140625 0.71875
vt 0.109375 0.71875
vt 0.109375 0.703125
vt 0.140625 0.703125
vt 0.140625 0.703125
vt 0.109375 0.703125
vt 0.109375 0.65625
vt 0.140625 0.65625
vt 0.484375 0.5
vt 0.453125 0.5
vt 0.453125 0.453125
vt 0.484375 0.453125
vt 0.5625 0.75
vt 0.453125 0.75
vt 0.453125 0.71875
vt 0.5625 0.71875
vt 0.53125 0.5
vt 0.5 0.5
vt 0.5 0.453125
vt 0.53125 0.453125
vt 0.03125 0.5625
vt 0.109375 0.5625
vt 0.109375 0.640625
vt 0.03125 0.640625
vt 0.109375 0.765625
vt 0.03125 0.765625
vt 0.03125 0.71875
vt 0.109375 0.71875
vt 0.03125 0.5625
vt 0.03125 0.640625
vt 0 0.640625
vt 0 0.5625
vt 0.078125 0.796875
vt 0.109375 0.796875
vt 0.109375 0.84375
vt 0.078125 0.84375
vt 0.140625 0.890625
vt 0.140625 0.9375
vt 0.0625 0.9375
vt 0.0625 0.890625
vt 0.171875 0.890625
vt 0.171875 0.9375
vt 0.140625 0.9375
vt 0.140625 0.890625
vt 0.4140625 0.421875
vt 0.4140625 0.46875
vt 0.391965625 0.46875
vt 0.391965625 0.421875
vt 0.265625 0.90625
vt 0.265625 0.828125
vt 0.3125 0.828125
vt 0.3125 0.90625
vt 0.3125 0.828125
vt 0.328125 0.828125
vt 0.328125 0.90625
vt 0.3125 0.90625
vt 0.421875 0.9375
vt 0.5 0.9375
vt 0.5 1
vt 0.421875 1
vn 0 1 0
vn 0 1 0
vn 0 -1 0
vn 0 -1 0
vn 1 0 0
vn 0 -1 0
vn -1 0 0
vn -1 0 0
vn -1 0 0
vn -1 0 0
vn -1 0 0
vn 1 0 0
vn 0 0 -1
vn 0 0 -1
vn 0 0 -1
vn 0 1 0
vn 0 0 -1
vn 0 1 0
vn 0 0 -1
vn 1 0 0
vn 0 0 -1
vn 1 0 0
vn 1 0 0
vn 0 0 -1
vn 0 1 0
vn 0 0 -1
vn 0 0 -1
vn 0 0 -1
vn 0 0 -1
vn 1 0 0
vn 0 -1 0
vn 0 0 1
vn 0 0 1
vn 0 0 1
vn 0 0 1
vn 0 1 0
vn 0 0 1
vn 0 1 0
vn 1 0 0
vn 1 0 0
vn 1 0 0
vn 0 0 1
vn 0 0 1
vn 0 0 1
vn 0 0 1
vn 0 0 1
vn 0 1 0
vn 0 -1 0
vn 1 0 0
vn 1 0 0
vn 0 -1 0
vn 0 -1 0
vn -1 0 0
vn -1 0 0
vn 0 -1 0
vn 1 0 0
vn 1 0 0
vn 0 0 -1
vn 0 0 1
vn 0 -1 0
vn 1 0 0
vn 1 0 0
vn 1 0 0
vn 1 0 0
vn 1 0 0
vn 1 0 0
vn 1 0 0
vn 1 0 0
vn 1 0 0
vn 1 0 0
vn 1 0 0
vn -1 0 0
vn 0 0 -1
vn 0 0 1
vn 1 0 0
vn 0 -1 0
vn 0 0 1
vn 0 0 1
vn 0 0 1
vn 0 0 -1
vn 0 0 -1
vn 0 0 -1
vn 0 0 1
vn 0 0 -1
vn 0 0 1
vn 0 0 -1
vn 0 1 0
vn 0 1 0
vn 0 0 -1
vn 0 0 1
vn 0 1 0
vn 0 0 1
vn 0 0 1
vn 0 0 1
vn 0 0 1
vn 0 0 -1
vn 0 0 -1
vn 0 0 -1
vn 0 0 -1
vn 0 0 1
vn 0 0 -1
vn 0 -1 0
vn 0 -1 0
vn 0 -1 0
vn 0 1 0
vn 0 1 0
vn -0.7071067811865476 0 -0.7071067811865476
vn -0.7071067811865476 0 -0.7071067811865476
vn 0 1 0
vn -0.7071067811865476 0 0.7071067811865476
vn -0.7071067811865476 0 0.7071067811865476
vn -0.7071067811865476 0 0.7071067811865476
vn -0.7071067811865476 0 0.7071067811865476
vn -0.7071067811865476 0 -0.7071067811865476
vn 0 -1 0
vn 0 -1 0
vn 0 -1 0
vn 0 -1 0
vn 0 -1 0
vn 0 -1 0
vn 1 0 0
vn 1 0 0
vn 0 0 -1
vn 1 0 0
vn 1 0 0
vn 0 0 1
vn 0 -1 0
vn -1 0 0
vn -1 0 0
vn -1 0 0
vn 0 1 0
vn 1 0 0
vn 0 1 0
vn -1 0 0
vn 0 1 0
vn 0 0 1
vn 0 0 -1
vn 0 0 -1
vn -0.7071067811865476 0 -0.7071067811865476
vn 0 1 0
vn 0 1 0
vn -0.9701425001453319 0.24253562503633297 0
usemtl m_410de49d-4a2d-2c20-f034-187bc4a750bd
f 19/1/1 27/2/1 26/3/1 20/4/1
f 27/5/2 21/6/2 22/7/2 26/8/2
f 3/9/3 9/10/3 18/11/3 17/12/3
f 63/13/4 8/14/4 9/15/4 3/16/4
f 17/17/5 16/18/5 11/19/5 3/20/5
f 12/21/6 11/22/6 16/23/6 49/24/6
f 49/25/7 15/26/7 10/27/7 12/28/7
f 20/29/8 29/30/8 30/31/8 19/32/8
f 19/33/9 30/34/9 31/35/9 28/36/9
f 29/37/10 18/38/10 9/39/10 30/40/10
f 8/41/11 31/42/11 30/43/11 9/44/11
f 21/45/12 45/46/12 32/47/12 22/48/12
f 29/49/13 16/50/13 17/51/13 18/52/13
f 20/53/14 22/54/14 32/55/14 29/56/14
f 23/57/15 34/58/15 35/59/15 33/60/15
f 34/61/16 36/62/16 98/63/16 35/64/16
f 36/65/17 42/66/17 37/67/17 98/68/17
f 42/69/18 38/70/18 107/71/18 37/72/18
f 23/73/19 39/74/19 40/75/19 34/76/19
f 34/77/20 41/78/20 42/79/20 36/80/20
f 40/81/21 48/82/21 43/83/21 34/84/21
f 42/85/22 44/86/22 45/87/22 38/88/22
f 42/89/23 46/90/23 47/91/23 44/92/23
f 46/93/24 48/94/24 49/95/24 47/96/24
f 167/97/25 25/98/25 53/99/25
f 45/100/26 58/101/26 59/102/26 38/103/26
f 21/104/27 56/105/27 58/106/27 45/107/27
f 2/108/28 52/109/28 56/110/28 21/111/28
f 5/112/29 53/113/29 52/114/29 2/115/29
f 84/116/30 81/117/30 82/118/30 85/119/30
f 8/120/31 63/121/31 64/122/31 60/123/31
f 71/124/32 72/125/32 79/126/32 70/127/32
f 70/128/33 81/129/33 73/130/33 69/131/33
f 66/132/34 61/133/34 60/134/34 64/135/34
f 84/136/35 62/137/35 61/138/35 81/139/35
f 72/140/36 99/141/36 74/142/36 79/143/36
f 99/144/37 75/145/37 76/146/37 74/147/37
f 75/148/38 105/149/38 77/150/38 76/151/38
f 76/152/39 78/153/39 79/154/39 74/155/39
f 76/156/40 80/157/40 81/158/40 78/159/40
f 77/160/41 82/161/41 80/162/41 76/163/41
f 13/164/42 83/165/42 85/166/42 1/167/42
f 93/168/43 4/169/43 1/170/43 94/171/43
f 94/172/44 1/173/44 85/174/44 95/175/44
f 82/176/45 96/177/45 95/178/45 85/179/45
f 96/180/46 82/181/46 77/182/46 97/183/46
f 93/184/47 92/185/47 170/186/47
f 108/187/48 97/188/48 101/189/48
f 50/190/49 89/191/49 87/192/49 54/193/49
f 24/194/50 91/195/50 89/196/50 50/197/50
f 172/198/51 104/199/51 103/200/51 106/201/51
f 12/202/52 117/203/52 118/204/52 11/205/52
f 10/206/53 119/207/53 117/208/53 12/209/53
f 67/210/54 120/211/54 121/212/54 68/213/54
f 65/214/55 122/215/55 120/216/55 67/217/55
f 63/218/56 123/219/56 124/220/56 65/221/56
f 11/222/57 125/223/57 126/224/57 3/225/57
f 119/226/58 126/227/58 125/228/58 117/229/58
f 123/230/59 121/231/59 120/232/59 124/233/59
f 123/234/60 126/235/60 119/236/60 121/237/60
f 130/238/61 131/239/61 132/240/61 128/241/61
f 127/242/62 133/243/62 134/244/62 129/245/62
f 127/246/63 135/247/63 136/248/63 133/249/63
f 132/250/64 137/251/64 138/252/64 128/253/64
f 138/254/65 135/255/65 127/256/65 128/257/65
f 129/258/66 112/259/66 152/260/66 127/261/66
f 103/262/67 111/263/67 112/264/67 110/265/67
f 109/266/68 113/267/68 114/268/68 104/269/68
f 128/270/69 151/271/69 113/272/69 130/273/69
f 139/274/70 141/275/70 142/276/70 140/277/70
f 143/278/71 145/279/71 146/280/71 144/281/71
f 147/282/72 149/283/72 150/284/72 148/285/72
f 147/286/73 145/287/73 143/288/73 149/289/73
f 146/290/74 148/291/74 150/292/74 144/293/74
f 139/294/75 140/295/75 116/296/75 115/297/75
f 115/298/76 116/299/76 111/300/76 114/301/76
f 150/302/77 153/303/77 154/304/77 144/305/77
f 140/306/78 154/307/78 155/308/78 116/309/78
f 142/310/79 144/311/79 154/312/79 140/313/79
f 143/314/80 156/315/80 157/316/80 149/317/80
f 115/318/81 158/319/81 156/320/81 139/321/81
f 139/322/82 156/323/82 143/324/82 141/325/82
f 153/326/83 112/327/83 111/328/83 160/329/83
f 159/330/84 114/331/84 113/332/84 157/333/84
f 153/334/85 161/335/85 162/336/85 112/337/85
f 113/338/86 163/339/86 164/340/86 157/341/86
f 163/342/87 162/343/87 161/344/87 164/345/87
f 147/346/88 148/347/88 146/348/88 145/349/88
f 157/350/89 156/351/89 158/352/89 159/353/89
f 154/354/90 153/355/90 160/356/90 155/357/90
f 142/358/91 141/359/91 143/360/91 144/361/91
f 108/362/92 134/363/92 133/364/92 86/365/92
f 136/366/93 88/367/93 86/368/93 133/369/93
f 88/370/94 87/371/94 89/372/94 90/373/94
f 90/374/95 89/375/95 91/376/95 92/377/95
f 131/378/96 166/379/96 57/380/96 132/381/96
f 55/382/97 137/383/97 132/384/97 57/385/97
f 51/386/98 50/387/98 54/388/98 55/389/98
f 25/390/99 24/391/99 50/392/99 51/393/99
f 110/394/100 101/395/100 100/396/100 103/397/100
f 104/398/101 102/399/101 165/400/101 109/401/101
f 134/402/102 108/403/102 101/404/102 129/405/102
f 166/406/103 165/407/103 59/408/103
f 166/409/104 131/410/104 130/411/104 165/412/104
f 25/413/105 167/414/105 168/415/105 24/416/105
f 91/417/106 169/418/106 170/419/106 92/420/106
f 57/421/107 166/422/107 59/423/107 58/424/107
f 55/425/108 57/426/108 58/427/108 56/428/108
f 167/429/109 170/430/109 169/431/109 168/432/109
f 97/433/110 108/434/110 86/435/110 96/436/110
f 88/437/111 95/438/111 96/439/111 86/440/111
f 90/441/112 94/442/112 95/443/112 88/444/112
f 92/445/113 93/446/113 94/447/113 90/448/113
f 53/449/114 25/450/114 51/451/114 52/452/114
f 33/453/115 171/454/115 178/455/115 23/456/115
f 171/457/116 173/458/116 174/459/116 178/460/116
f 70/461/117 179/462/117 175/463/117 71/464/117
f 179/465/118 176/466/118 177/467/118 175/468/118
f 173/469/119 177/470/119 176/471/119 174/472/119
f 23/473/120 70/474/120 69/475/120 39/476/120
f 107/477/121 173/478/121 171/479/121 37/480/121
f 98/481/122 171/482/122 33/483/122 35/484/122
f 102/485/123 173/486/123 107/487/123 165/488/123
f 72/489/124 71/490/124 175/491/124 99/492/124
f 177/493/125 105/494/125 75/495/125 175/496/125
f 101/497/126 105/498/126 177/499/126 100/500/126
f 65/501/127 67/502/127 73/503/127 66/504/127
f 62/505/128 28/506/128 31/507/128 61/508/128
f 61/509/129 31/510/129 8/511/129 60/512/129
f 73/513/130 67/514/130 68/515/130 69/516/130
f 85/517/131 28/518/131 62/519/131 84/520/131
f 65/521/132 66/522/132 64/523/132 63/524/132
f 13/525/133 1/526/133 2/527/133 14/528/133
f 6/529/134 7/530/134 19/531/134 28/532/134
f 13/533/135 14/534/135 7/535/135 6/536/135
f 28/537/136 83/538/136 13/539/136 6/540/136
f 27/541/137 14/542/137 2/543/137 21/544/137
f 19/545/138 7/546/138 14/547/138 27/548/138
f 56/549/139 52/550/139 51/551/139 55/552/139
f 5/553/140 4/554/140 93/555/140 53/556/140
f 93/557/141 170/558/141 167/559/141 53/560/141
f 2/561/142 1/562/142 4/563/142 5/564/142