# Made in Blockbench 4.12.2
mtllib vehicles_ground_car_pickup_tailgate.mtl

o cuboid
v 0.06249999999999989 0.25 0.125
v 0.06249999999999989 0.25 -0.125
v 0.06249999999999989 0.125 0.125
v 0.06249999999999989 0.125 -0.125
v -1.1102230246251565e-16 0.25 0.125
v -1.1102230246251565e-16 0.25 -0.125
v -1.1102230246251565e-16 0.125 0.125
v -1.1102230246251565e-16 0.125 -0.125
vt 0.25 1
vt 0 1
vt 0 0.875
vt 0.25 0.875
vt 0.25 0.6875
vt 0.25 0.8125
vt 0 0.8125
vt 0 0.6875
vt 0.3125 0.75
vt 0.375 0.75
vt 0.375 1
vt 0.3125 1
vt 0.375 0.4375
vt 0.375 0.6875
vt 0.3125 0.6875
vt 0.3125 0.4375
vt 0.0625 0.5
vt 0.0625 0.625
vt 0 0.625
vt 0 0.5
vt 0.1875 0.625
vt 0.125 0.625
vt 0.125 0.5
vt 0.1875 0.5
vn 1 0 0
vn -1 0 0
vn 0 1 0
vn 0 -1 0
vn 0 0 1
vn 0 0 -1
usemtl m_07bdffd8-8344-8767-aa48-bb338f87a82f
f 2/1/1 1/2/1 3/3/1 4/4/1
f 7/5/2 5/6/2 6/7/2 8/8/2
f 5/9/3 1/10/3 2/11/3 6/12/3
f 4/13/4 3/14/4 7/15/4 8/16/4
f 3/17/5 1/18/5 5/19/5 7/20/5
f 6/21/6 2/22/6 4/23/6 8/24/6