# Made in Blockbench 4.12.2
mtllib vehicles_ground_wheel_6x4.mtl

o cuboid
v 0.078125 0.15625 0.046875
v 0.078125 0.15625 -0.046875
v 0.078125 0 0.046875
v 0.078125 0 -0.046875
v -0.078125 0.15625 0.046875
v -0.078125 0.15625 -0.046875
v -0.078125 0 0.046875
v -0.078125 0 -0.046875
vt 0.4375 0.875
vt 0.3125 0.875
vt 0.3125 0.6875
vt 0.4375 0.6875
vt 0.125 0.6875
vt 0.125 0.875
vt 0 0.875
vt 0 0.6875
vt 0.625 0.875
vt 0.4375 0.875
vt 0.4375 0.6875
vt 0.625 0.6875
vt 0.3125 0.875
vt 0.125 0.875
vt 0.125 0.6875
vt 0.3125 0.6875
vt 0.125 0.875
vt 0.3125 0.875
vt 0.3125 1
vt 0.125 1
vt 0.125 0.5625
vt 0.3125 0.5625
vt 0.3125 0.6875
vt 0.125 0.6875
vn 1 0 0
vn -1 0 0
vn 0 0 -1
vn 0 0 1
vn 0 1 0
vn 0 -1 0
usemtl m_daf9f76a-3fa7-0f29-522c-489008107f39
f 2/1/1 1/2/1 3/3/1 4/4/1
f 7/5/2 5/6/2 6/7/2 8/8/2
f 6/9/3 2/10/3 4/11/3 8/12/3
f 1/13/4 5/14/4 7/15/4 3/16/4
f 5/17/5 1/18/5 2/19/5 6/20/5
f 8/21/6 4/22/6 3/23/6 7/24/6