# Made in Blockbench 4.12.2
mtllib vehicles_ground_wheel_10x4.mtl

o cuboid
v 0.09375 0.3125 0.06249999999999997
v -0.09375 0 0.06249999999999997
v -0.09375 0 -0.06250000000000003
v -0.09375 0.3125 -0.06250000000000003
v -0.09375 0.3125 0.06249999999999997
v 0.09375 0.3125 -0.06250000000000003
v 0.15625 0.25 -0.06250000000000003
v 0.15625 0.25 0.06249999999999997
v 0.15625 0.0625 -0.06250000000000003
v 0.15625 0.0625 0.06249999999999997
v 0.09375 0 -0.06250000000000003
v 0.09375 0 0.06249999999999997
v -0.15625 0.0625 -0.06250000000000003
v -0.15625 0.0625 0.06249999999999997
v -0.15625 0.25 -0.06250000000000003
v -0.15625 0.25 0.06249999999999997
vt 0.5 0.8125
vt 0.5 1
vt 0.375 1
vt 0.375 0.8125
vt 0.5625 0.625
vt 0.5625 0.75
vt 0.375 0.75
vt 0.375 0.625
vt 0.375 0.5625
vt 0.375 0.375
vt 0.5 0.375
vt 0.5 0.5625
vt 0.75 1
vt 0.5625 1
vt 0.5625 0.875
vt 0.75 0.875
vt 0.5625 0.5625
vt 0.5625 0.5
vt 0.6875 0.5
vt 0.6875 0.5625
vt 0.6875 0.4375
vt 0.5625 0.4375
vt 0.5625 0.375
vt 0.6875 0.375
vt 0.75 0.75
vt 0.75 0.8125
vt 0.625 0.8125
vt 0.625 0.75
vt 0.75 0.625
vt 0.75 0.6875
vt 0.625 0.6875
vt 0.625 0.625
vt 0.25 1
vt 0.0625 1
vt 0 0.9375
vt 0.3125 0.9375
vt 0.3125 0.9375
vt 0 0.9375
vt 0 0.75
vt 0.3125 0.75
vt 0.3125 0.75
vt 0 0.75
vt 0.0625 0.6875
vt 0.25 0.6875
vt 0 0.5625
vt 0.3125 0.5625
vt 0.25 0.625
vt 0.0625 0.625
vt 0 0.375
vt 0.3125 0.375
vt 0.3125 0.5625
vt 0 0.5625
vt 0.0625 0.3125
vt 0.25 0.3125
vt 0.3125 0.375
vt 0 0.375
vn 1 0 0
vn 0 -1 0
vn -1 0 0
vn 0 1 0
vn 0.7071067811865476 0.7071067811865476 0
vn -0.7071067811865476 0.7071067811865476 0
vn -0.7071067811865476 -0.7071067811865476 0
vn 0.7071067811865476 -0.7071067811865476 0
vn 0 0 -1
vn 0 0 -1
vn 0 0 -1
vn 0 0 1
vn 0 0 1
vn 0 0 1
usemtl m_2b826275-9830-7a16-1de9-c9d9d022e6c4
f 9/1/1 7/2/1 8/3/1 10/4/1
f 11/5/2 12/6/2 2/7/2 3/8/2
f 15/9/3 13/10/3 14/11/3 16/12/3
f 6/13/4 4/14/4 5/15/4 1/16/4
f 1/17/5 8/18/5 7/19/5 6/20/5
f 5/21/6 4/22/6 15/23/6 16/24/6
f 2/25/7 14/26/7 13/27/7 3/28/7
f 11/29/8 9/30/8 10/31/8 12/32/8
f 4/33/9 6/34/9 7/35/9 15/36/9
f 15/37/10 7/38/10 9/39/10 13/40/10
f 13/41/11 9/42/11 11/43/11 3/44/11
f 16/45/12 8/46/12 1/47/12 5/48/12
f 14/49/13 10/50/13 8/51/13 16/52/13
f 2/53/14 12/54/14 10/55/14 14/56/14