# Made in Blockbench 4.12.2
mtllib 576x_floor_base_sanfrancisco.mtl

o cuboid
v 9 1 7
v 9 1 -7
v 9 0 7
v 9 0 -7
v -9 1 7
v -9 1 -7
v -9 0 7
v -9 0 -7
vt 0.5009765625 0.966796875
vt 0.2822265625 0.966796875
vt 0.2822265625 0.951171875
vt 0.5009765625 0.951171875
vt 0.5009765625 0.9345703125
vt 0.5009765625 0.9501953125
vt 0.2822265625 0.9501953125
vt 0.2822265625 0.9345703125
vt 0 0.78125
vt 0.28125 0.78125
vt 0.28125 1
vt 0 1
vt 0.28125 0.5615234375
vt 0.28125 0.7802734375
vt 0 0.7802734375
vt 0 0.5615234375
vt 0.5634765625 0.984375
vt 0.5634765625 1
vt 0.2822265625 1
vt 0.2822265625 0.984375
vt 0.5634765625 0.9833984375
vt 0.2822265625 0.9833984375
vt 0.2822265625 0.9677734375
vt 0.5634765625 0.9677734375
vn 1 0 0
vn -1 0 0
vn 0 1 0
vn 0 -1 0
vn 0 0 1
vn 0 0 -1
usemtl m_da21526a-d93f-540e-76af-9aaf3b6060ac
f 2/1/1 1/2/1 3/3/1 4/4/1
f 7/5/2 5/6/2 6/7/2 8/8/2
f 5/9/3 1/10/3 2/11/3 6/12/3
f 4/13/4 3/14/4 7/15/4 8/16/4
f 3/17/5 1/18/5 5/19/5 7/20/5
f 6/21/6 2/22/6 4/23/6 8/24/6