# Made in Blockbench 4.12.2
mtllib 608x480_floor_sanfrancisco_base.mtl

o cuboid
v 9.5 2 7.5
v 9.5 2 -7.5
v 9.5 0 -7.5
v -9.5 2 7.5
v -9.5 2 -7.5
v -9.5 0 7.5
v -9.5 0 -7.5
v 9.5 0 7.5
vt 0.53125 0.96875
vt 0.53125 1
vt 0.296875 1
vt 0.296875 0.96875
vt 0 0.765625
vt 0.296875 0.765625
vt 0.296875 1
vt 0 1
vt 0.296875 0.765625
vt 0 0.765625
vt 0 0.734375
vt 0.296875 0.734375
vt 0.296875 0.703125
vt 0.296875 0.734375
vt 0 0.734375
vt 0 0.703125
vt 0.53125 0.96875
vt 0.296875 0.96875
vt 0.296875 0.9375
vt 0.53125 0.9375
vn -1 0 0
vn 0 1 0
vn 0 0 -1
vn 0 0 1
vn 1 0 0
usemtl m_24f602c7-7a13-81f0-5a67-eb48474650ed
f 6/1/1 4/2/1 5/3/1 7/4/1
f 4/5/2 1/6/2 2/7/2 5/8/2
f 5/9/3 2/10/3 3/11/3 7/12/3
f 8/13/4 1/14/4 4/15/4 6/16/4
f 2/17/5 1/18/5 8/19/5 3/20/5