# Made in Blockbench 4.12.3
mtllib floor_sanfrancisco_base.mtl

o cuboid
v 9.5 2 7.5
v 9.5 2 -7.5
v -9.5 2 7.5
v -9.5 2 -7.5
v 9.5 2 17.5
v -19.5 2 -7.5
v -19.5 2 7.5
v -19.5 2 17.5
v -9.5 2 17.5
v 19.5 2 -7.5
v 19.5 2 17.5
v 19.5 2 7.5
vt 0.15625 0.765625
vt 0.453125 0.765625
vt 0.453125 1
vt 0.15625 1
vt 0.15625 0.765625
vt 0.15625 0.609375
vt 0.453125 0.609375
vt 0.453125 0.765625
vt 0.15625 1
vt 0 1
vt 0 0.765625
vt 0.15625 0.765625
vt 0 0.765625
vt 0 0.609375
vt 0.15625 0.609375
vt 0.15625 0.765625
vt 0.453125 0.765625
vt 0.609375 0.765625
vt 0.609375 1
vt 0.453125 1
vt 0.453125 0.609375
vt 0.609375 0.609375
vt 0.609375 0.765625
vt 0.453125 0.765625
vn 0 1 0
vn 0 1 0
vn 0 1 0
vn 0 1 0
vn 0 1 0
vn 0 1 0
usemtl m_bcdeed8b-1136-3f53-426a-4d58ef69f2a9
f 3/1/1 1/2/1 2/3/1 4/4/1
f 3/5/2 9/6/2 5/7/2 1/8/2
f 4/9/3 6/10/3 7/11/3 3/12/3
f 7/13/4 8/14/4 9/15/4 3/16/4
f 1/17/5 12/18/5 10/19/5 2/20/5
f 5/21/6 11/22/6 12/23/6 1/24/6