# Made in Blockbench 4.12.2
mtllib base_64x128.mtl

o cube
v 1 0.625 2
v 1 0.625 -2
v 1 0 2
v 1 0 -2
v -1 0.625 -2
v -1 0.625 2
v -1 0 -2
v -1 0 2
vt 0.25 0.75
vt 0.375 0.75
vt 0.375 0.7109375
vt 0.25 0.7109375
vt 0 0.75
vt 0.25 0.75
vt 0.25 0.7109375
vt 0 0.7109375
vt 0.625 0.75
vt 0.75 0.75
vt 0.75 0.7109375
vt 0.625 0.7109375
vt 0.375 0.75
vt 0.625 0.75
vt 0.625 0.7109375
vt 0.375 0.7109375
vt 0.375 0.75
vt 0.25 0.75
vt 0.25 1
vt 0.375 1
vt 0.5 1
vt 0.375 1
vt 0.375 0.75
vt 0.5 0.75
vn 0 0 -1
vn 1 0 0
vn 0 0 1
vn -1 0 0
vn 0 1 0
vn 0 -1 0
usemtl m_f821f393-1112-4f18-84f5-43e114cfdbda
f 4/4/1 7/3/1 5/2/1 2/1/1
f 3/8/2 4/7/2 2/6/2 1/5/2
f 8/12/3 3/11/3 1/10/3 6/9/3
f 7/16/4 8/15/4 6/14/4 5/13/4
f 6/20/5 1/19/5 2/18/5 5/17/5
f 7/24/6 4/23/6 3/22/6 8/21/6