# Made in Blockbench 4.12.2
mtllib base_96x.mtl

o cuboid
v 1.5 0.625 1.5
v 1.5 0.625 -1.5
v 1.5 0 1.5
v 1.5 0 -1.5
v -1.5 0.625 1.5
v -1.5 0.625 -1.5
v -1.5 0 1.5
v -1.5 0 -1.5
vt 0.7578125 1
vt 0.3828125 1
vt 0.3828125 0.921875
vt 0.7578125 0.921875
vt 0.7578125 0.8359375
vt 0.7578125 0.9140625
vt 0.3828125 0.9140625
vt 0.3828125 0.8359375
vt 0 0.625
vt 0.375 0.625
vt 0.375 1
vt 0 1
vt 0.375 0.2421875
vt 0.375 0.6171875
vt 0 0.6171875
vt 0 0.2421875
vt 0.7578125 0.75
vt 0.7578125 0.828125
vt 0.3828125 0.828125
vt 0.3828125 0.75
vt 0.7578125 0.7421875
vt 0.3828125 0.7421875
vt 0.3828125 0.6640625
vt 0.7578125 0.6640625
vn 1 0 0
vn -1 0 0
vn 0 1 0
vn 0 -1 0
vn 0 0 1
vn 0 0 -1
usemtl m_496ee82c-312f-30f4-de69-6507dcaaa2f4
f 2/1/1 1/2/1 3/3/1 4/4/1
f 7/5/2 5/6/2 6/7/2 8/8/2
f 5/9/3 1/10/3 2/11/3 6/12/3
f 4/13/4 3/14/4 7/15/4 8/16/4
f 3/17/5 1/18/5 5/19/5 7/20/5
f 6/21/6 2/22/6 4/23/6 8/24/6