# Made in Blockbench 4.12.2
mtllib roof_64x.mtl

o cuboid
v 1 0 1
v 1 0 -1
v -1 0 1
v -1 0 -1
v 0 0.375 -1
v 0 0.375 1
vt 0.2578125 0.8125
vt 0.5078125 0.8125
vt 0.3828125 0.859375
vt 0 0.609375
vt 0.25 0.609375
vt 0.25 0.7421875
vt 0 0.7421875
vt 0.5078125 1
vt 0.2578125 1
vt 0.2578125 0.8671875
vt 0.5078125 0.8671875
vt 0.25 0.75
vt 0.25 1
vt 0 1
vt 0 0.75
vt 0.3828125 0.8046875
vt 0.2578125 0.7578125
vt 0.5078125 0.7578125
vn 0 0 1
vn -0.3511234415883917 0.9363291775690445 0
vn 0.3511234415883917 0.9363291775690445 0
vn 0 -1 0
vn 0 0 -1
usemtl m_bc6f4c33-735b-26c9-b4ba-4421a660e344
f 3/1/1 1/2/1 6/3/1
f 4/4/2 3/5/2 6/6/2 5/7/2
f 5/8/3 6/9/3 1/10/3 2/11/3
f 2/12/4 1/13/4 3/14/4 4/15/4
f 5/16/5 2/17/5 4/18/5