# Made in Blockbench 4.12.2
mtllib vehicles_ground_tank_sherman_head.mtl

o cuboid
v 0.21875 0.1875 0.15625
v 0.21875 0.1875 -0.15625
v 0.21875 0.0625 0.15625
v 0.21875 0.0625 -0.15625
v -0.21875 0.1875 0.15625
v -0.21875 0.1875 -0.15625
v -0.21875 0.0625 0.15625
v -0.21875 0.0625 -0.15625
v 0.15625 0.25 0.15625
v -0.15625 0.25 0.15625
v -0.15625 0.25 -0.15625
v 0.15625 0.25 -0.15625
vt 0.15625 0.65625
vt 0.15625 0.8125
vt 0 0.8125
vt 0 0.65625
vt 0.40625 0.84375
vt 0.40625 0.875
vt 0.25 0.875
vt 0.25 0.84375
vt 0.53125 0.65625
vt 0.53125 0.6875
vt 0.375 0.6875
vt 0.375 0.65625
vt 0.375 0.8125
vt 0.21875 0.8125
vt 0.1875 0.78125
vt 0.40625 0.78125
vt 0.4375 1
vt 0.28125 1
vt 0.25 0.96875
vt 0.46875 0.96875
vt 0 1
vt 0 0.84375
vt 0.21875 0.84375
vt 0.21875 1
vt 0.1875 0.78125
vt 0.1875 0.71875
vt 0.40625 0.71875
vt 0.40625 0.78125
vt 0.34375 0.625
vt 0.34375 0.6875
vt 0.1875 0.6875
vt 0.1875 0.625
vt 0.46875 0.90625
vt 0.46875 0.96875
vt 0.25 0.96875
vt 0.25 0.90625
vt 0.15625 0.5625
vt 0.15625 0.625
vt 0 0.625
vt 0 0.5625
vn 0 1 0
vn -0.7071067811865476 0.7071067811865476 0
vn 0.7071067811865476 0.7071067811865476 0
vn 0 0 1
vn 0 0 -1
vn 0 -1 0
vn 0 0 1
vn 1 0 0
vn 0 0 -1
vn -1 0 0
usemtl m_ac595265-1514-8ce7-f358-b0a84151c0de
f 9/1/1 12/2/1 11/3/1 10/4/1
f 5/5/2 10/6/2 11/7/2 6/8/2
f 2/9/3 12/10/3 9/11/3 1/12/3
f 9/13/4 10/14/4 5/15/4 1/16/4
f 11/17/5 12/18/5 2/19/5 6/20/5
f 7/21/6 8/22/6 4/23/6 3/24/6
f 5/25/7 7/26/7 3/27/7 1/28/7
f 4/29/8 2/30/8 1/31/8 3/32/8
f 8/33/9 6/34/9 2/35/9 4/36/9
f 7/37/10 5/38/10 6/39/10 8/40/10