# Made in Blockbench 4.12.2
mtllib vehicles_ground_tank_sherman_body.mtl

o cuboid
v 0.5625 0.1875 0.15625
v 0.5625 0.1875 -0.15625
v 0.5625 0.0625 0.15625
v 0.5625 0.0625 -0.15625
v -0.375 0.0625 0.15625
v -0.375 0.0625 -0.15625
v -0.5 0.1875 -0.15625
v -0.5 0.1875 0.15625
v -0.1875 0.4375 -0.21875
v -0.1875 0.4375 0.21875
v -0.3125 0.4375 -0.21875
v -0.3125 0.4375 0.21875
v 0.6875 0.3125 -0.21875
v 0.6875 0.3125 0.21875
v 0.25 0.4375 0.21875
v 0.25 0.4375 -0.21875
v 0.25 0.375 0.21875
v 0.25 0.375 -0.21875
v 0.6875 0.3125 -0.28125
v 0.6875 0.3125 0.28125
v 0.25 0.375 -0.28125
v 0.25 0.375 0.28125
v 0.6875 0.25 -0.21875
v 0.6875 0.25 0.21875
v 0.6875 0.25 0.28125
v 0.6875 0.25 -0.28125
v -0.1875 0.4375 -0.28125
v -0.3125 0.4375 -0.28125
v -0.3125 0.4375 0.28125
v -0.1875 0.4375 0.28125
v -0.5 0.25 -0.28125
v -0.5 0.25 0.28125
v 0.6875 0.3125 -0.15625
v 0.6875 0.25 -0.15625
v 0.6875 0.25 0.15625
v 0.6875 0.3125 0.15625
v -0.4375 0.3125 -0.28125
v -0.4375 0.3125 0.28125
v -0.375 0.375 -0.28125
v -0.375 0.375 0.28125
v 0.5625 0.25 0.15625
v -0.5 0.25 0.15625
v 0.5625 0.25 -0.15625
v -0.5 0.25 -0.15625
v 0.5625 0.25 0.21875
v -0.5 0.25 0.21875
v -0.5 0.25 -0.21875
v 0.5625 0.25 -0.21875
vt 0.078125 0.59375
vt 0.078125 0.625
vt 0 0.625
vt 0 0.59375
vt 0.265625 0.6875
vt 0 0.6875
vt 0 0.65625
vt 0.234375 0.65625
vt 0.578125 0.828125
vt 0.3125 0.828125
vt 0.34375 0.796875
vt 0.578125 0.796875
vt 0.28125 1
vt 0.28125 0.921875
vt 0.515625 0.921875
vt 0.515625 1
vt 0.171875 0.640625
vt 0.09375 0.640625
vt 0.09375 0.59375
vt 0.171875 0.59375
vt 0.140625 0.765625
vt 0.140625 0.78125
vt 0.125 0.78125
vt 0.125 0.765625
vt 0.015625 0.765625
vt 0.015625 0.78125
vt 0 0.78125
vt 0 0.765625
vt 0.14453124999999997 1
vt 0.03404531249999998 1
vt 0.03404531249999998 0.984375
vt 0.14453124999999997 0.984375
vt 0.03404531249999998 0.859375
vt 0.14453125 0.859375
vt 0.14453125 0.875
vt 0.03404531249999998 0.875
vt 0.03404531249999998 0.875
vt 0.14342031249999998 0.875
vt 0.14342031249999998 0.984375
vt 0.03404531249999998 0.984375
vt 0 0.578125
vt 0.109375 0.5625
vt 0.109375 0.578125
vt 0.125 0.5625
vt 0.234375 0.578125
vt 0.125 0.578125
vt 0.359375 0.5625
vt 0.25 0.5625
vt 0.25 0.546875
vt 0.359375 0.546875
vt 0.125 0.78125
vt 0.109375 0.78125
vt 0.109375 0.765625
vt 0.125 0.765625
vt 0.015625 0.765625
vt 0.03125 0.765625
vt 0.03125 0.78125
vt 0.015625 0.78125
vt 0.3125 0.765625
vt 0.609375 0.765625
vt 0.609375 0.78125
vt 0.3125 0.78125
vt 0.609375 0.75
vt 0.3125 0.75
vt 0.3125 0.734375
vt 0.609375 0.734375
vt 0.109375 0.78125
vt 0.03125 0.78125
vt 0.03125 0.765625
vt 0.109375 0.765625
vt 0.2550171875 0.875
vt 0.14453125 0.875
vt 0.14453125 0.859375
vt 0.2550171875 0.859375
vt 0.25501718749999996 1
vt 0.14453124999999997 1
vt 0.14453124999999997 0.984375
vt 0.25501718749999996 0.984375
vt 0.14453124999999997 0.984375
vt 0.14453125 0.875
vt 0.2550171875 0.875
vt 0.25501718749999996 0.984375
vt 0.00279531249999998 0.875
vt 0.03404531249999998 0.875
vt 0.03404531249999998 0.984375
vt 0.00279531249999998 0.984375
vt 0.00279531249999998 0.984375
vt 0.03404531249999998 0.984375
vt 0.03404531249999998 1
vt 0.00279531249999998 1
vt 0.00279531249999998 0.859375
vt 0.03404531249999998 0.859375
vt 0.03404531249999998 0.875
vt 0.00279531249999998 0.875
vt 0.28125 0.859375
vt 0.578125 0.859375
vt 0.5625 0.875
vt 0.28125 0.875
vt 0.53125 0.90625
vt 0.5 0.90625
vt 0.390625 0.890625
vt 0.546875 0.890625
vt 0.546875 0.890625
vt 0.390625 0.890625
vt 0.28125 0.875
vt 0.5625 0.875
vt 0.46875 0.703125
vt 0.3125 0.703125
vt 0.296875 0.6875
vt 0.578125 0.6875
vt 0.359375 0.71875
vt 0.328125 0.71875
vt 0.3125 0.703125
vt 0.46875 0.703125
vt 0.578125 0.6875
vt 0.296875 0.6875
vt 0.28125 0.671875
vt 0.578125 0.671875
vt 0.296875 0.5899578125
vt 0.296875 0.65625
vt 0.28125 0.65625
vt 0.28125 0.5899578125
vt 0.421875 0.5899578125
vt 0.421875 0.65625
vt 0.40625 0.65625
vt 0.40625 0.5899578125
vt 0.40625 0.65625
vt 0.296875 0.65625
vt 0.296875 0.5899578125
vt 0.40625 0.5899578125
vt 0.578125 0.828125
vt 0.578125 0.84375
vt 0.3125 0.84375
vt 0.3125 0.828125
vt 0.078125 0.625
vt 0.078125 0.640625
vt 0 0.640625
vt 0 0.625
vt 0.265625 0.6875
vt 0.265625 0.703125
vt 0 0.703125
vt 0 0.6875
vt 0.234375 0.765625
vt 0.234375 0.78125
vt 0.15625 0.78125
vt 0.15625 0.765625
vt 0.265625 0.734375
vt 0.296875 0.734375
vt 0.296875 0.8125
vt 0.265625 0.8125
vt 0.265625 0.8125
vt 0.265625 0.828125
vt 0 0.828125
vt 0 0.8125
vt 0 0.734375
vt 0 0.71875
vt 0.265625 0.71875
vt 0.265625 0.734375
vt 0.265625 0.71875
vt 0.296875 0.71875
vt 0.296875 0.734375
vt 0.265625 0.734375
vt 0.296875 0.828125
vt 0.265625 0.828125
vt 0.265625 0.8125
vt 0.296875 0.8125
vn 1 0 0
vn 0 0 -1
vn 0 0 1
vn 0 -1 0
vn -0.7071067811865476 -0.7071067811865476 0
vn 1 0 0
vn 1 0 0
vn 0.14142135623730953 0.9899494936611667 0
vn 0.14142135623730953 0.9899494936611667 0
vn 0 1 0
vn 0 0 1
vn 0 0 -1
vn 1 0 0
vn 1 0 0
vn 1 0 0
vn 0 -1 0
vn 0 -1 0
vn 1 0 0
vn 0.14142135623730953 0.9899494936611667 0
vn 0.14142135623730953 0.9899494936611667 0
vn 0.14142135623730953 0.9899494936611667 0
vn 0 1 0
vn 0 1 0
vn 0 1 0
vn 0 0 -1
vn 0 0 -1
vn 0 0 -1
vn 0 0 1
vn 0 0 1
vn 0 0 1
vn -0.7071067811865476 0.7071067811865476 0
vn -0.7071067811865476 0.7071067811865476 0
vn -0.7071067811865476 0.7071067811865476 0
vn 0 0 1
vn 1 0 0
vn 0 0 -1
vn -1 0 0
vn 0 -1 0
vn 0 -1 0
vn 0 -1 0
vn 0 -1 0
vn 0 -1 0
usemtl m_d3dc5d7f-f7b1-4c24-fd77-e183237a3297
f 4/1/1 2/2/1 1/3/1 3/4/1
f 7/5/2 2/6/2 4/7/2 6/8/2
f 1/9/3 8/10/3 5/11/3 3/12/3
f 5/13/4 6/14/4 4/15/4 3/16/4
f 8/17/5 7/18/5 6/19/5 5/20/5
f 26/21/6 19/22/6 13/23/6 23/24/6
f 24/25/7 14/26/7 20/27/7 25/28/7
f 21/29/8 27/30/8 9/31/8 18/32/8
f 30/33/9 22/34/9 17/35/9 10/36/9
f 10/37/10 15/38/10 16/39/10 9/40/10
f 10/41/11 17/42/11 15/43/11
f 18/44/12 9/45/12 16/46/12
f 16/47/13 15/48/13 17/49/13 18/50/13
f 13/51/14 33/52/14 34/53/14 23/54/14
f 24/55/15 35/56/15 36/57/15 14/58/15
f 31/59/16 26/60/16 23/61/16 47/62/16
f 25/63/17 32/64/17 46/65/17 24/66/17
f 33/67/18 36/68/18 35/69/18 34/70/18
f 14/71/19 17/72/19 22/73/19 20/74/19
f 19/75/20 21/76/20 18/77/20 13/78/20
f 18/79/21 17/80/21 14/81/21 13/82/21
f 12/83/22 10/84/22 9/85/22 11/86/22
f 11/87/23 9/88/23 27/89/23 28/90/23
f 29/91/24 30/92/24 10/93/24 12/94/24
f 26/95/25 31/96/25 37/97/25 19/98/25
f 28/99/26 27/100/26 21/101/26 39/102/26
f 39/103/27 21/104/27 19/105/27 37/106/27
f 22/107/28 40/108/28 38/109/28 20/110/28
f 30/111/29 29/112/29 40/113/29 22/114/29
f 20/115/30 38/116/30 32/117/30 25/118/30
f 47/119/31 11/120/31 28/121/31 31/122/31
f 32/123/32 29/124/32 12/125/32 46/126/32
f 12/127/33 11/128/33 47/129/33 46/130/33
f 1/131/34 41/132/34 42/133/34 8/134/34
f 2/135/35 43/136/35 41/137/35 1/138/35
f 7/139/36 44/140/36 43/141/36 2/142/36
f 8/143/37 42/144/37 44/145/37 7/146/37
f 43/147/38 34/148/38 35/149/38 41/150/38
f 41/151/39 45/152/39 46/153/39 42/154/39
f 44/155/40 47/156/40 48/157/40 43/158/40
f 48/159/41 23/160/41 34/161/41 43/162/41
f 24/163/42 45/164/42 41/165/42 35/166/42