# Made in Blockbench 4.12.2
mtllib vehicles_ground_tank_sherman_treads.mtl

o cuboid
v -0.5 0.25 -0.09374999999999997
v -0.5 0.25 0.03125000000000003
v -0.5625 0.1875 -0.09374999999999997
v -0.5625 0.1875 0.03125000000000003
v 0.5625 0.25 0.03125000000000003
v 0.5625 0.25 -0.09374999999999997
v 0.625 0.1875 0.03125000000000003
v 0.625 0.1875 -0.09374999999999997
v 0.5 0 -0.09374999999999997
v 0.5 0 0.03125000000000003
v -0.4375 0 -0.09374999999999997
v -0.4375 0 0.03125000000000003
v -0.5625 0.125 0.03125000000000003
v -0.5625 0.125 -0.09374999999999997
v 0.625 0.125 -0.09374999999999997
v 0.625 0.125 0.03125000000000003
vt 0.375 0.5
vt 0.375 0.46875
vt 0.4375 0.46875
vt 0.4375 0.5
vt 0.5 0.59375
vt 0.5 0.5625
vt 0.5625 0.5625
vt 0.5625 0.59375
vt 0.0625 0.40625
vt 0.0625 0.5
vt 0 0.5
vt 0 0.40625
vt 0.15625 0.40625
vt 0.15625 0.5
vt 0.09375 0.5
vt 0.09375 0.40625
vt 0.1875 0.5
vt 0.1875 0.46875
vt 0.25 0.46875
vt 0.25 0.5
vt 0.34375 0.46875
vt 0.34375 0.5
vt 0.28125 0.5
vt 0.28125 0.46875
vt 0 0.53125
vt 0.46875 0.53125
vt 0.46875 0.59375
vt 0 0.59375
vt 0.59375 0.96875
vt 0 0.96875
vt 0 0.9375
vt 0.59375 0.9375
vt 0 0.96875
vt 0.59375 0.96875
vt 0.5625 1
vt 0.03125 1
vt 0.53125 0.6875
vt 0 0.6875
vt 0 0.625
vt 0.53125 0.625
vt 0.0625 0.875
vt 0.53125 0.875
vt 0.59375 0.9375
vt 0 0.9375
vt 0.59375 0.78125
vt 0 0.78125
vt 0.0625 0.71875
vt 0.53125 0.71875
vt 0 0.78125
vt 0.59375 0.78125
vt 0.59375 0.8125
vt 0 0.8125
vt 0.5625 0.84375
vt 0.03125 0.84375
vt 0 0.8125
vt 0.59375 0.8125
vn -0.7071067811865476 0.7071067811865476 0
vn 0.7071067811865476 0.7071067811865476 0
vn -0.7071067811865476 -0.7071067811865476 0
vn 0.7071067811865476 -0.7071067811865476 0
vn 1 0 0
vn -1 0 0
vn 0 -1 0
vn 0 0 1
vn 0 0 1
vn 0 1 0
vn 0 0 1
vn 0 0 -1
vn 0 0 -1
vn 0 0 -1
usemtl m_f90f876b-aded-1a2a-31b8-5b1844741c1d
f 1/1/1 3/2/1 4/3/1 2/4/1
f 5/5/2 7/6/2 8/7/2 6/8/2
f 12/9/3 13/10/3 14/11/3 11/12/3
f 9/13/4 15/14/4 16/15/4 10/16/4
f 7/17/5 16/18/5 15/19/5 8/20/5
f 13/21/6 4/22/6 3/23/6 14/24/6
f 11/25/7 9/26/7 10/27/7 12/28/7
f 7/29/8 4/30/8 13/31/8 16/32/8
f 4/33/9 7/34/9 5/35/9 2/36/9
f 6/37/10 1/38/10 2/39/10 5/40/10
f 12/41/11 10/42/11 16/43/11 13/44/11
f 14/45/12 15/46/12 9/47/12 11/48/12
f 15/49/13 14/50/13 3/51/13 8/52/13
f 1/53/14 6/54/14 8/55/14 3/56/14