# Made in Blockbench 4.11.2
mtllib vehicles_ground_car_sedan.mtl

o cuboid
v 0.375 0.1875 0.125
v 0.375 0.1875 -0.1875
v 0.4375 0.0625 0.125
v 0.4375 0.0625 -0.1875
v -0.1875 0.1875 0.125
v -0.1875 0.1875 -0.1875
v -0.3125 0.0625 0.125
v -0.3125 0.0625 -0.1875
v 0.3125 0.3125 0.125
v 0.3125 0.3125 -0.1875
v -0.0625 0.3125 0.125
v -0.0625 0.3125 -0.1875
v -0.4375 0.1875 0.125
v -0.4375 0.1875 -0.1875
v -0.4375 0.0625 0.125
v -0.4375 0.0625 -0.1875
v 0.5 0.1875 0.125
v 0.5 0.0625 0.125
v 0.5 0.1875 -0.1875
v 0.5 0.0625 -0.1875
v 0.3125 0.0625 0.125
v 0.3125 0.0625 -0.1875
v -0.1875 0.0625 0.125
v -0.1875 0.0625 -0.1875
v 0.1875 0.3125 -0.1875
v 0.0625 0.3125 -0.1875
v 0.1875 0.3125 0.125
v 0.0625 0.3125 0.125
v 0.4375 0.125 0.125
v 0.3125 0.125 0.125
v 0.3125 0.125 -0.1875
v 0.4375 0.125 -0.1875
v -0.3125 0.125 -0.1875
v -0.1875 0.125 0.125
v -0.1875 0.125 -0.1875
v -0.3125 0.125 0.125
v 0.5 0.125 0.125
v 0.5 0.125 -0.1875
v -0.4375 0.125 0.125
v -0.4375 0.125 -0.1875
v 0.4375 0.1875 -0.1875
v 0.4375 0.1875 0.125
v -0.3125 0.1875 0.125
v -0.3125 0.1875 -0.1875
vt 0.65625 0.8125
vt 0.65625 0.84375
vt 0.5 0.84375
vt 0.5 0.8125
vt 0.15625 0.5
vt 0.15625 0.46875
vt 0.3125 0.46875
vt 0.3125 0.5
vt 0.28125 0.53125
vt 0.34375 0.53125
vt 0.34375 0.6875
vt 0.28125 0.6875
vt 0.5 0.625
vt 0.5625 0.625
vt 0.5625 0.78125
vt 0.5 0.78125
vt 0.125 0.5
vt 0.0625 0.5
vt 0.0625 0.34375
vt 0.125 0.34375
vt 0.34375 0.5
vt 0.34375 0.34375
vt 0.40625 0.34375
vt 0.40625 0.5
vt 0.46875 0.34375
vt 0.46875 0.5
vt 0.4375 0.5
vt 0.4375 0.34375
vt 0.5625 0.59375
vt 0.5 0.59375
vt 0.5 0.4375
vt 0.5625 0.4375
vt 0.25 0.6875
vt 0 0.6875
vt 0 0.53125
vt 0.25 0.53125
vt 0.46875 0.6875
vt 0.40625 0.6875
vt 0.40625 0.53125
vt 0.46875 0.53125
vt 0.40625 0.6875
vt 0.34375 0.6875
vt 0.34375 0.53125
vt 0.40625 0.53125
vt 0.75 0.6875
vt 0.59375 0.6875
vt 0.59375 0.65625
vt 0.75 0.65625
vt 0.75 0.625
vt 0.59375 0.625
vt 0.59375 0.59375
vt 0.75 0.59375
vt 0.75 0.5625
vt 0.59375 0.5625
vt 0.59375 0.53125
vt 0.75 0.53125
vt 0.65625 0.40625
vt 0.5 0.40625
vt 0.5 0.375
vt 0.65625 0.375
vt 0.28125 1
vt 0.09375 1
vt 0.0625 0.9375
vt 0.34375 0.9375
vt 0.125 0.78125
vt 0.40625 0.78125
vt 0.375 0.84375
vt 0.1875 0.84375
vt 0.5 0.875
vt 0.5 0.84375
vt 0.65625 0.84375
vt 0.65625 0.875
vt 0.3125 0.4375
vt 0.3125 0.46875
vt 0.15625 0.46875
vt 0.15625 0.4375
vt 0.03125 0.90625
vt 0 0.90625
vt 0 0.875
vt 0.03125 0.875
vt 0.34375 0.90625
vt 0.09375 0.90625
vt 0.09375 0.875
vt 0.34375 0.875
vt 0.46875 0.90625
vt 0.40625 0.90625
vt 0.40625 0.875
vt 0.46875 0.875
vt 0 0.34375
vt 0.0625 0.34375
vt 0.0625 0.5
vt 0 0.5
vt 0.40625 0.9375
vt 0.40625 0.90625
vt 0.46875 0.90625
vt 0.46875 0.9375
vt 0.34375 0.9375
vt 0.34375 0.90625
vt 0.40625 0.90625
vt 0.40625 0.9375
vt 0 0.9375
vt 0 0.90625
vt 0.03125 0.90625
vt 0.03125 0.9375
vt 0.03125 0.9375
vt 0.03125 0.90625
vt 0.09375 0.90625
vt 0.0625 0.9375
vt 0.0625 0.9375
vt 0.09375 0.90625
vt 0.34375 0.90625
vt 0.34375 0.9375
vt 0.0625 0.75
vt 0 0.75
vt 0 0.71875
vt 0.0625 0.71875
vt 0.375 0.75
vt 0.125 0.75
vt 0.125 0.71875
vt 0.375 0.71875
vt 0.46875 0.75
vt 0.4375 0.75
vt 0.4375 0.71875
vt 0.46875 0.71875
vt 0.4375 0.78125
vt 0.4375 0.75
vt 0.46875 0.75
vt 0.46875 0.78125
vt 0.4375 0.75
vt 0.4375 0.78125
vt 0.40625 0.78125
vt 0.375 0.75
vt 0.0625 0.75
vt 0.0625 0.78125
vt 0 0.78125
vt 0 0.75
vt 0.125 0.75
vt 0.125 0.78125
vt 0.0625 0.78125
vt 0.0625 0.75
vt 0.125 0.78125
vt 0.125 0.75
vt 0.375 0.75
vt 0.40625 0.78125
vt 0.59375 0.78125
vt 0.59375 0.71875
vt 0.75 0.71875
vt 0.75 0.78125
vt 0.15625 0.25
vt 0.1875 0.25
vt 0.1875 0.40625
vt 0.15625 0.40625
vt 0.21875 0.40625
vt 0.1875 0.40625
vt 0.1875 0.25
vt 0.21875 0.25
vt 0.5 1
vt 0.5 0.90625
vt 0.65625 0.90625
vt 0.65625 1
vn 1 0 0
vn -1 0 0
vn 0 1 0
vn 0 -1 0
vn 0 1 0
vn 0 -1 0
vn 0 -1 0
vn 0 -1 0
vn 0 -1 0
vn 0 1 0
vn 0 1 0
vn 1 0 0
vn -1 0 0
vn -1 0 0
vn 1 0 0
vn 0 0 -1
vn 0 0 1
vn 1 0 0
vn -1 0 0
vn 0 0 -1
vn 0 0 -1
vn 0 0 -1
vn 0 1 0
vn 0 0 -1
vn 0 0 -1
vn 0 0 -1
vn 0 0 -1
vn 0 0 -1
vn 0 0 1
vn 0 0 1
vn 0 0 1
vn 0 0 1
vn 0 0 1
vn 0 0 1
vn 0 0 1
vn 0 0 1
vn 0.8944271909999161 0.44721359549995804 0
vn 0 1 0
vn 0 1 0
vn -0.7071067811865476 0.7071067811865476 0
usemtl m_6e2898ec-60fe-9eb0-047f-fcbd9a391ac6
f 20/1/1 38/2/1 37/3/1 18/4/1
f 14/5/2 40/6/2 39/7/2 13/8/2
f 11/9/3 28/10/3 26/11/3 12/12/3
f 33/13/4 35/14/4 34/15/4 36/16/4
f 6/17/5 44/18/5 43/19/5 5/20/5
f 15/21/6 16/22/6 8/23/6 7/24/6
f 20/25/7 18/26/7 3/27/7 4/28/7
f 29/29/8 30/30/8 31/31/8 32/32/8
f 21/33/9 23/34/9 24/35/9 22/36/9
f 10/37/10 25/38/10 27/39/10 9/40/10
f 25/41/11 26/42/11 28/43/11 27/44/11
f 31/45/12 30/46/12 21/47/12 22/48/12
f 29/49/13 32/50/13 4/51/13 3/52/13
f 34/53/14 35/54/14 24/55/14 23/56/14
f 33/57/15 36/58/15 7/59/15 8/60/15
f 12/61/16 10/62/16 2/63/16 6/64/16
f 5/65/17 1/66/17 9/67/17 11/68/17
f 17/69/18 37/70/18 38/71/18 19/72/18
f 15/73/19 39/74/19 40/75/19 16/76/19
f 32/77/20 38/78/20 20/79/20 4/80/20
f 35/81/21 31/82/21 22/83/21 24/84/21
f 40/85/22 33/86/22 8/87/22 16/88/22
f 13/89/23 43/90/23 44/91/23 14/92/23
f 44/93/24 33/94/24 40/95/24 14/96/24
f 6/97/25 35/98/25 33/99/25 44/100/25
f 19/101/26 38/102/26 32/103/26 41/104/26
f 41/105/27 32/106/27 31/107/27 2/108/27
f 2/109/28 31/110/28 35/111/28 6/112/28
f 36/113/29 39/114/29 15/115/29 7/116/29
f 30/117/30 34/118/30 23/119/30 21/120/30
f 37/121/31 29/122/31 3/123/31 18/124/31
f 42/125/32 29/126/32 37/127/32 17/128/32
f 29/129/33 42/130/33 1/131/33 30/132/33
f 36/133/34 43/134/34 13/135/34 39/136/34
f 34/137/35 5/138/35 43/139/35 36/140/35
f 5/141/36 34/142/36 30/143/36 1/144/36
f 9/145/37 1/146/37 2/147/37 10/148/37
f 1/149/38 42/150/38 41/151/38 2/152/38
f 19/153/39 41/154/39 42/155/39 17/156/39
f 12/157/40 6/158/40 5/159/40 11/160/40